<svg width="67" height="13" fill="none" xmlns="http://www.w3.org/2000/svg"><path d="M.128 10V1.6h1.284L6.68 8.068h-.636V1.6h1.548V10H6.308L1.04 3.532h.636V10H.128Zm12.45.084c-.655 0-1.24-.14-1.751-.42a3.228 3.228 0 0 1-1.212-1.176c-.296-.496-.444-1.06-.444-1.692 0-.64.148-1.204.444-1.692a3.14 3.14 0 0 1 1.212-1.164c.512-.28 1.096-.42 1.752-.42.664 0 1.252.14 1.764.42.52.28.924.664 1.212 1.152.296.488.444 1.056.444 1.704 0 .632-.148 1.196-.444 1.692a3.116 3.116 0 0 1-1.212 1.176c-.512.28-1.1.42-1.764.42Zm0-1.284c.369 0 .697-.08.985-.24a1.66 1.66 0 0 0 .672-.696c.168-.304.252-.66.252-1.068 0-.416-.084-.772-.252-1.068a1.66 1.66 0 0 0-.672-.696 1.967 1.967 0 0 0-.972-.24c-.368 0-.696.08-.984.24a1.76 1.76 0 0 0-.672.696c-.168.296-.252.652-.252 1.068 0 .408.084.764.252 1.068.168.304.392.536.672.696.288.16.612.24.972.24Zm-.011 3.636a.75.75 0 0 1-.516-.192.675.675 0 0 1-.204-.516c0-.216.068-.392.204-.528a.725.725 0 0 1 .516-.204c.2 0 .368.068.504.204a.693.693 0 0 1 .216.528.656.656 0 0 1-.216.516.707.707 0 0 1-.504.192Zm-2.292-9.72 1.608-1.644h1.368l1.608 1.644h-1.236l-1.632-1.38h1.152l-1.632 1.38h-1.236ZM17.433 10V3.592h1.5V10h-1.5Zm.756-7.464a.967.967 0 0 1-.696-.264.867.867 0 0 1-.264-.636c0-.256.088-.468.264-.636a.967.967 0 0 1 .696-.264c.28 0 .508.084.684.252.184.16.276.364.276.612a.936.936 0 0 1-.264.672c-.176.176-.408.264-.696.264Zm8.441 7.548c-.704 0-1.248-.18-1.632-.54-.384-.368-.576-.908-.576-1.62V2.176h1.5v5.712c0 .304.076.54.228.708.16.168.38.252.66.252.336 0 .616-.088.84-.264l.42 1.068a1.762 1.762 0 0 1-.648.324c-.256.072-.52.108-.792.108ZM23.366 4.84v-1.2h4.272v1.2h-4.272Zm9.574-1.32c.512 0 .968.1 1.368.3.408.2.728.508.96.924.232.408.348.936.348 1.584V10h-1.5V6.52c0-.568-.136-.992-.408-1.272-.264-.28-.636-.42-1.116-.42a1.97 1.97 0 0 0-.936.216c-.272.144-.484.36-.636.648-.144.28-.216.636-.216 1.068V10h-1.5V1.096h1.5V5.32l-.324-.528c.224-.408.548-.72.972-.936.432-.224.928-.336 1.488-.336ZM41.467 10V8.704l-.084-.276V6.16c0-.44-.132-.78-.396-1.02-.264-.248-.664-.372-1.2-.372-.36 0-.716.056-1.068.168a2.617 2.617 0 0 0-.876.468l-.588-1.092c.344-.264.752-.46 1.224-.588.48-.136.976-.204 1.488-.204.928 0 1.644.224 2.148.672.512.44.768 1.124.768 2.052V10h-1.416Zm-2.016.084c-.48 0-.9-.08-1.26-.24a2.05 2.05 0 0 1-.84-.684 1.79 1.79 0 0 1-.288-.996c0-.36.084-.684.252-.972.176-.288.46-.516.852-.684.392-.168.912-.252 1.56-.252h1.86v.996h-1.752c-.512 0-.856.084-1.032.252a.777.777 0 0 0-.264.6c0 .272.108.488.324.648.216.16.516.24.9.24.368 0 .696-.084.984-.252.296-.168.508-.416.636-.744l.252.9a1.662 1.662 0 0 1-.78.876c-.368.208-.836.312-1.404.312Zm-1.644-7.368 1.62-1.284h1.344l1.62 1.284h-1.248l-1.608-1.02h1.128l-1.608 1.02h-1.248Zm3.6-1.104L42.775.208h1.608L42.56 1.612h-1.152Zm5.813 8.472c-.704 0-1.248-.18-1.632-.54-.384-.368-.576-.908-.576-1.62V2.176h1.5v5.712c0 .304.076.54.228.708.16.168.38.252.66.252.336 0 .616-.088.84-.264l.42 1.068a1.762 1.762 0 0 1-.648.324c-.256.072-.52.108-.792.108ZM43.956 4.84v-1.2h4.272v1.2h-4.272Zm11.235 5.244a5.828 5.828 0 0 1-1.548-.204c-.488-.144-.876-.316-1.164-.516l.576-1.14c.288.184.632.336 1.032.456s.8.18 1.2.18c.472 0 .812-.064 1.02-.192.216-.128.324-.3.324-.516a.434.434 0 0 0-.216-.396 1.598 1.598 0 0 0-.564-.216 12.078 12.078 0 0 0-.78-.132c-.28-.04-.564-.092-.852-.156a3.266 3.266 0 0 1-.768-.3 1.657 1.657 0 0 1-.564-.54c-.144-.224-.216-.52-.216-.888 0-.408.116-.76.348-1.056.232-.304.556-.536.972-.696.424-.168.924-.252 1.5-.252.432 0 .868.048 1.308.144.44.096.804.232 1.092.408l-.576 1.14a2.912 2.912 0 0 0-.924-.372 3.945 3.945 0 0 0-.912-.108c-.456 0-.796.068-1.02.204-.216.136-.324.308-.324.516 0 .192.072.336.216.432.144.096.332.172.564.228.232.056.488.104.768.144.288.032.572.084.852.156s.536.172.768.3c.24.12.432.292.576.516.144.224.216.516.216.876 0 .4-.12.748-.36 1.044-.232.296-.564.528-.996.696-.432.16-.948.24-1.548.24Zm7.075 0c-.656 0-1.24-.14-1.752-.42a3.228 3.228 0 0 1-1.212-1.176c-.296-.496-.444-1.06-.444-1.692 0-.64.148-1.204.444-1.692a3.14 3.14 0 0 1 1.212-1.164c.512-.28 1.096-.42 1.752-.42.664 0 1.252.14 1.764.42.52.28.924.664 1.212 1.152.296.488.444 1.056.444 1.704 0 .632-.148 1.196-.444 1.692a3.116 3.116 0 0 1-1.212 1.176c-.512.28-1.1.42-1.764.42Zm0-1.284c.368 0 .696-.08.984-.24a1.66 1.66 0 0 0 .672-.696c.168-.304.252-.66.252-1.068 0-.416-.084-.772-.252-1.068a1.66 1.66 0 0 0-.672-.696 1.967 1.967 0 0 0-.972-.24c-.368 0-.696.08-.984.24a1.76 1.76 0 0 0-.672.696c-.168.296-.252.652-.252 1.068 0 .408.084.764.252 1.068.168.304.392.536.672.696.288.16.612.24.972.24Zm-2.304-6.084 1.62-1.284h1.344l1.62 1.284h-1.248l-1.608-1.02h1.128l-1.608 1.02h-1.248Zm3.6-1.104L64.93.208h1.608l-1.824 1.404h-1.152Z" fill="#000"/></svg>